<svg width="24" height="24" viewBox="0 0 24 24" fill="none" xmlns="http://www.w3.org/2000/svg">
<path d="M18.677 19.607L12.962 13.891C11.7358 14.7628 10.2268 15.142 8.73417 14.9537C7.24149 14.7653 5.87407 14.023 4.90289 12.8739C3.93172 11.7248 3.42768 10.2528 3.49068 8.74965C3.55368 7.24646 4.17911 5.82179 5.24302 4.758C6.30665 3.69375 7.73131 3.06797 9.23461 3.0047C10.7379 2.94143 12.2101 3.4453 13.3594 4.41641C14.5087 5.38753 15.2512 6.75501 15.4396 8.2478C15.6281 9.74058 15.2489 11.2497 14.377 12.476L20.092 18.192L18.678 19.606L18.677 19.607V19.607ZM9.48502 5C8.56508 4.99978 7.67318 5.31667 6.9596 5.89727C6.24602 6.47786 5.75437 7.28667 5.56749 8.18743C5.38062 9.08819 5.50993 10.0258 5.93365 10.8424C6.35737 11.6589 7.0496 12.3045 7.8937 12.6702C8.7378 13.036 9.68217 13.0996 10.5677 12.8504C11.4533 12.6012 12.2258 12.0544 12.7553 11.302C13.2847 10.5497 13.5386 9.63791 13.4743 8.72023C13.41 7.80254 13.0313 6.93508 12.402 6.264L13.007 6.864L12.325 6.184L12.313 6.172C11.9426 5.79929 11.5019 5.50379 11.0165 5.30261C10.531 5.10143 10.0105 4.99858 9.48502 5V5Z" fill="#666666"/>
</svg>
